# xmcd
#
# Track frame offsets:
#	150
#	14386
#	30573
#	44302
#	57974
#
# Disc length: 966 seconds
#
# Revision: 1
# Processed by: cddbd v1.5.2PL0 Copyright (c) Steve Scherf et al.
# Submitted via: audiograbber 1.83.01
#
DISCID=3603c405
DTITLE=Defloration - Misanthropic Instinct
DYEAR=2004
DGENRE=Death
TTITLE0=Xtrem Blowjob
TTITLE1=Misanthropic Instinct
TTITLE2=Humanity vs. Paranoia
TTITLE3=Nostradamus 
TTITLE4=Personal Vendetta 
EXTD=
EXTT0=
EXTT1=
EXTT2=
EXTT3=
EXTT4=
PLAYORDER=
